<svg xmlns="http://www.w3.org/2000/svg" viewBox="0 0 1910.44 1910.44"><defs><style>.cls-1,.cls-3{fill:#fff4d8;}.cls-1,.cls-2,.cls-4,.cls-8,.cls-9{stroke:#2c252d;}.cls-1,.cls-2,.cls-4,.cls-5,.cls-8,.cls-9{stroke-miterlimit:10;}.cls-1,.cls-2,.cls-4,.cls-8{stroke-width:20px;}.cls-2{fill:#a6a5ff;}.cls-4,.cls-5,.cls-9{fill:none;}.cls-5{stroke:#5c5c8c;stroke-width:35px;}.cls-6,.cls-8{fill:#6362b2;}.cls-7{fill:#535380;}.cls-9{stroke-width:10px;}</style></defs><title>MS_Logo_Compact</title><g id="Layer_2" data-name="Layer 2"><circle class="cls-1" cx="955.22" cy="955.22" r="945.22"/></g><g id="Layer_3" data-name="Layer 3"><path class="cls-2" d="M370,640.18c154.89-244.76,428-407.27,739.09-407.27,482.7,0,874,391.31,874,874s-391.31,874-874,874-874-391.3-874-874c0-171.63,49.47-331.7,134.92-466.74" transform="translate(-153.86 -151.69)"/></g><g id="Layer_5" data-name="Layer 5"><path class="cls-3" d="M471.35,481.5c-33.52,45.39-119.65,204-114.26,362.79,1.3,38.14,5.34,111.12,48,189,36,65.77,84.45,102.82,141,147,68.86,53.81,130,82.7,153,93,44.65,20,79.21,31.85,189,57,196.27,45,107.21,18.16,216,51,44.85,13.54,212.45,68.08,312,216,68,101.07,74.39,201.81,80.33,295.74l-69.44,30.61c.15-45.6-3.28-81.11-10.89-119.33-12-60.36-34.84-147.55-95.77-211.32-97.25-101.8-180.19-124.8-210.41-136.57-23.85-9.28-8.33-6.07-94.17-24.83-48.89-10.69-84.78-19.3-133.5-28.84-39-7.64-46.21-10.53-78.21-18.48-49.92-12.4-23.19-5.7-63.29-17.85-27.21-8.25-84.52-34.51-125.38-55.42-30.45-15.57-48.77-26.84-94.5-60-60-43.49-137.75-117.59-187.49-210-43.85-81.46-34.15-158-36.57-227.67-.14-4.07.41-62.37,13.75-111.7C330.13,629.66,337,584,337,614.53" transform="translate(-153.86 -151.69)"/></g><g id="Layer_4" data-name="Layer 4"><path class="cls-4" d="M455.51,526.61c-37,41.38-104.75,156.85-99.36,315.6,1.3,38.13,8.6,107.3,51.26,185.21,36,65.77,81.2,106.62,137.76,150.82,68.86,53.81,130,82.71,153,93,44.65,20,79.22,31.86,189,57,196.26,45,107.2,18.16,216,51,44.85,13.54,212.46,68.08,312,216,68,101.07,74.39,201.82,80.33,295.75l-69.43,27c.14-45.59-3.29-77.55-10.9-115.77-12-60.36-34.84-147.55-95.77-211.33-97.25-101.79-180.18-124.8-210.41-136.56-23.85-9.29-8.32-6.08-94.17-24.84-48.89-10.68-84.78-19.3-133.5-28.83-39-7.64-46.21-10.54-78.21-18.49-49.92-12.4-23.19-5.69-63.29-17.84-27.2-8.25-84.51-34.52-125.38-55.42-30.45-15.58-48.77-26.85-94.5-60-60-43.5-146-113.62-187.49-210a493.54,493.54,0,0,1-30.84-97.78c-9.73-47-15-101.7-14.85-130.4" transform="translate(-153.86 -151.69)"/></g><g id="Layer_8" data-name="Layer 8"><line class="cls-5" x1="1301.62" y1="1039.25" x2="1117.24" y2="1304.78"/><line class="cls-5" x1="1144.51" y1="995.66" x2="979.47" y2="1230.74"/></g><g id="Layer_6" data-name="Layer 6"><path class="cls-6" d="M1587,1184.88l-.63,1.13a74.71,74.71,0,0,0-7.86.92,471.88,471.88,0,0,1-105,5.47q-20.74-1.25-41-4.29a482.66,482.66,0,0,1-116.53-32.87q-17.05-7.17-33.47-15.57c-208.67-106.34-336.94-350.61-272.14-544.33.61-1.84,2.73-5.91,2.12-10.57a12.43,12.43,0,0,0-1.45-4.4s0,0,0,0c-12.42-38.25-18.87-74.83-20.78-106.19-1.51-24.69-.2-46.15,3.23-62.64,3.08-14.76,7.85-25.55,13.83-31.1l8.75-4.62c120.83-51.7,222.08-18.76,257,164,20.37,20,27.5,19.59,52.45,48.59l1.15-1c215.68-3.38,383.81,420.81,442.69,635l13.92,44.05C1715.92,1248.18,1649.48,1219.92,1587,1184.88Z" transform="translate(-153.86 -151.69)"/><path class="cls-6" d="M1012.59,584.77c-.5-1.47-1-2.93-1.45-4.4A12.43,12.43,0,0,1,1012.59,584.77Z" transform="translate(-153.86 -151.69)"/><path class="cls-7" d="M990.35,474.16l-1.73.1c-5.21,0-8.21,4.49-66.21-6.34l-41.69-4.12c45-32.69,58.26-34.28,112.86-52.28C990.15,428,988.84,449.47,990.35,474.16Z" transform="translate(-153.86 -151.69)"/><path class="cls-4" d="M1325.63,588.39c-25-29-32.08-28.55-52.45-48.59l-2.08-2.07" transform="translate(-153.86 -151.69)"/><path class="cls-4" d="M1011.14,580.37a12.43,12.43,0,0,1,1.45,4.4c.61,4.66-1.51,8.73-2.12,10.57-64.8,193.72,63.47,438,272.14,544.33q16.41,8.38,33.47,15.57a482.66,482.66,0,0,0,116.53,32.87q20.23,3,41,4.29a471.88,471.88,0,0,0,105-5.47,74.71,74.71,0,0,1,7.86-.92" transform="translate(-153.86 -151.69)"/><path class="cls-4" d="M1010.22,578.92a14.2,14.2,0,0,1,.91,1.43" transform="translate(-153.86 -151.69)"/><path class="cls-4" d="M1228.8,630.48c-4.14,4.57-6.44,10.74-8.93,16C1150,794.34,1336.32,1044.21,1587,1184.88c62.44,35,128.88,63.3,196.35,81.52l-13.92-44.05c-58.88-214.2-227-638.39-442.69-635" transform="translate(-153.86 -151.69)"/><path class="cls-4" d="M1012.91,585.75c-.11-.33-.22-.65-.32-1-.5-1.47-1-2.93-1.45-4.4,0,0,0,0,0,0-12.42-38.25-18.87-74.83-20.78-106.19-1.51-24.69-.2-46.15,3.23-62.64,3.08-14.76,7.85-25.55,13.83-31.1l8.75-4.62c120.83-51.7,222.08-18.76,257,164l.6,3.19" transform="translate(-153.86 -151.69)"/><line class="cls-4" x1="1278.76" y1="1036.41" x2="1102.76" y2="1295.67"/><line class="cls-4" x1="1319.74" y1="1040.7" x2="1134.8" y2="1316.85"/><polyline class="cls-4" points="1129.92 986.29 1128.76 987.97 960.55 1230.74"/><polyline class="cls-4" points="1164.1 1000.79 1162.23 1003.54 998.4 1244.41"/><path class="cls-4" d="M988.62,474.26c-5.21,0-8.21,4.49-66.21-6.34l-41.69-4.12c45-32.69,58.26-34.28,112.86-52.28" transform="translate(-153.86 -151.69)"/><path class="cls-8" d="M1226,634.18c19-25.82,48.22-46.87,103.19-46.87" transform="translate(-153.86 -151.69)"/><line class="cls-8" x1="1102.76" y1="1295.67" x2="1139.42" y2="1319.91"/><line class="cls-8" x1="960.54" y1="1230.74" x2="998.4" y2="1244.41"/><path class="cls-9" d="M1141.64,356.84" transform="translate(-153.86 -151.69)"/><path class="cls-9" d="M1232.07,1110.24" transform="translate(-153.86 -151.69)"/><path class="cls-9" d="M1092.36,697.15" transform="translate(-153.86 -151.69)"/><path class="cls-9" d="M1232.07,1110.24" transform="translate(-153.86 -151.69)"/><path class="cls-9" d="M1649.18,902.7" transform="translate(-153.86 -151.69)"/><path class="cls-9" d="M1219.88,646.47" transform="translate(-153.86 -151.69)"/><path class="cls-9" d="M1783.39,1266.4" transform="translate(-153.86 -151.69)"/><path class="cls-9" d="M1533.12,1060.72" transform="translate(-153.86 -151.69)"/><path class="cls-9" d="M1199.09,385.29" transform="translate(-153.86 -151.69)"/><path class="cls-9" d="M1187.42,587.32" transform="translate(-153.86 -151.69)"/><path class="cls-9" d="M1011.85,820.62" transform="translate(-153.86 -151.69)"/></g><g id="Layer_7" data-name="Layer 7"><path class="cls-4" d="M1496.53,1879.53" transform="translate(-153.86 -151.69)"/><path class="cls-4" d="M1034,1359.48" transform="translate(-153.86 -151.69)"/><path class="cls-4" d="M966.45,1969.34c0-359.25-207.92-571.67-411.31-695.51" transform="translate(-153.86 -151.69)"/><path class="cls-4" d="M424.37,563.06" transform="translate(-153.86 -151.69)"/><path class="cls-4" d="M380.87,1590.4" transform="translate(-153.86 -151.69)"/><path class="cls-4" d="M805.11,1491.2" transform="translate(-153.86 -151.69)"/><path class="cls-4" d="M965.3,1923.72c0-224,143.13-408.93,324.7-360.36" transform="translate(-153.86 -151.69)"/><path class="cls-4" d="M607.75,1222.35" transform="translate(-153.86 -151.69)"/><path class="cls-4" d="M1034,1359.48" transform="translate(-153.86 -151.69)"/><path class="cls-4" d="M1114.4,1382.44" transform="translate(-153.86 -151.69)"/><path class="cls-4" d="M1746.9,1147.23c59.41-438.41-55.61-893.08-595.89-913.33" transform="translate(-153.86 -151.69)"/><path class="cls-4" d="M1034,1359.48" transform="translate(-153.86 -151.69)"/><path class="cls-4" d="M698.19,1271.25C235.07,847.06,581.18,153.58,1235.1,241.93" transform="translate(-153.86 -151.69)"/><path class="cls-4" d="M1730.29,1249.94" transform="translate(-153.86 -151.69)"/><path class="cls-4" d="M1496.53,1879.53c308.59-335.84,59-677.22,28.45-687.56" transform="translate(-153.86 -151.69)"/><path class="cls-4" d="M1763.84,847.06c17.57,39,29.86,53.16,45.25,79.79,249.8,432.3-127.68,847.57-156.36,864.46" transform="translate(-153.86 -151.69)"/><path class="cls-4" d="M1745.61,755.17c9.81,73.15,14.34,82.85,38,130.91" transform="translate(-153.86 -151.69)"/><path class="cls-4" d="M235.07,1106.92c0,212.41,286.61,548.5,636.62,483.48" transform="translate(-153.86 -151.69)"/><path class="cls-4" d="M999.5,537.73c-218.52,23.48-461.68,211.78-445,551.18" transform="translate(-153.86 -151.69)"/><path class="cls-4" d="M1010.47,1355C682.66,996,812.57,662.36,903.69,558.33" transform="translate(-153.86 -151.69)"/><path class="cls-4" d="M1417.49,610.75c66.78-129.25-2.23-338.6-218.4-373.26" transform="translate(-153.86 -151.69)"/><path class="cls-4" d="M1092.36,357.94C1034,293.42,800.3,301.06,650.29,422.43" transform="translate(-153.86 -151.69)"/></g></svg>